<?xml version="1.0" standalone="no"?>
<!DOCTYPE svg PUBLIC "-//W3C//DTD SVG 20010904//EN"
 "http://www.w3.org/TR/2001/REC-SVG-20010904/DTD/svg10.dtd">
<svg version="1.0" xmlns="http://www.w3.org/2000/svg"
 width="2469.000000pt" height="2463.000000pt" viewBox="0 0 2469.000000 2463.000000"
 preserveAspectRatio="xMidYMid meet">

<g transform="translate(0.000000,2463.000000) scale(0.100000,-0.100000)"
fill="#000000" stroke="none">
<path d="M0 12315 l0 -12315 12345 0 12345 0 0 12315 0 12315 -12345 0 -12345
0 0 -12315z m7443 8519 c5 -9 25 -14 51 -14 29 0 51 -7 66 -20 13 -11 31 -20
42 -20 10 0 18 -7 18 -15 0 -8 7 -15 16 -15 9 0 18 -9 21 -20 3 -11 10 -20 15
-20 20 0 58 -45 58 -69 0 -13 7 -29 16 -35 8 -7 18 -32 21 -56 4 -25 12 -49
18 -55 7 -5 16 -37 19 -70 4 -32 13 -73 21 -89 8 -16 15 -46 15 -67 0 -21 5
-50 11 -66 7 -15 18 -73 25 -127 7 -55 18 -104 24 -110 5 -5 10 -35 10 -65 0
-31 5 -74 11 -96 6 -22 17 -89 24 -149 8 -60 19 -123 25 -139 5 -17 10 -53 10
-82 0 -28 4 -76 10 -106 5 -30 16 -103 24 -164 8 -60 26 -171 40 -245 42 -232
49 -315 42 -528 -4 -108 -10 -483 -14 -832 -4 -349 -11 -640 -15 -647 -4 -6
-12 -110 -17 -230 -5 -120 -12 -229 -15 -243 -3 -14 -10 -95 -16 -180 -5 -85
-16 -200 -24 -254 -8 -55 -15 -129 -15 -166 0 -36 -5 -71 -10 -76 -6 -6 -16
-67 -21 -135 -6 -68 -15 -132 -20 -142 -6 -10 -12 -57 -15 -105 -3 -48 -10
-96 -15 -107 -4 -11 -15 -70 -24 -131 -8 -61 -19 -124 -25 -138 -5 -15 -10
-46 -10 -70 0 -23 -4 -46 -10 -52 -5 -5 -14 -43 -21 -84 -6 -41 -16 -84 -21
-95 -5 -12 -13 -45 -18 -75 -4 -30 -15 -73 -24 -95 -8 -22 -15 -54 -16 -70 0
-17 -4 -35 -9 -40 -6 -6 -14 -39 -20 -73 -6 -35 -14 -69 -20 -75 -5 -7 -14
-39 -20 -72 -6 -32 -16 -64 -21 -69 -6 -6 -10 -21 -10 -35 0 -15 -7 -39 -15
-55 -8 -16 -18 -47 -22 -70 -3 -22 -10 -43 -14 -47 -5 -3 -13 -27 -18 -53 -5
-27 -14 -52 -21 -56 -6 -4 -14 -26 -17 -48 -3 -23 -12 -47 -19 -53 -8 -6 -14
-21 -14 -33 0 -12 -9 -38 -20 -59 -11 -20 -20 -43 -20 -51 0 -8 -7 -27 -15
-43 -8 -15 -33 -89 -56 -163 -48 -160 -78 -244 -154 -444 -66 -174 -85 -235
-155 -486 -58 -206 -137 -480 -176 -610 -91 -299 -65 -475 68 -457 23 3 45 13
50 21 5 9 16 16 23 16 8 0 15 7 15 15 0 8 4 15 9 15 14 0 61 45 61 59 0 6 4
11 10 11 5 0 73 63 150 140 77 77 145 140 150 140 6 0 10 6 10 14 0 7 9 16 20
19 11 3 20 12 20 21 0 9 7 16 15 16 8 0 15 6 15 14 0 7 9 16 20 19 11 3 20 12
20 21 0 9 7 16 15 16 8 0 15 6 15 14 0 7 9 16 20 19 11 3 20 12 20 21 0 9 5
16 11 16 6 0 92 80 192 178 227 223 258 252 262 252 2 0 36 32 74 70 39 39 75
70 81 70 5 0 10 7 10 15 0 8 6 15 14 15 8 0 18 9 21 20 3 11 13 20 21 20 8 0
14 7 14 15 0 8 4 15 10 15 12 0 60 48 60 60 0 6 4 10 10 10 5 0 44 33 85 73
99 94 135 127 135 122 0 -3 8 3 18 13 11 9 17 20 15 24 -2 4 7 10 21 14 14 3
28 15 31 25 4 10 13 19 21 19 8 0 14 6 14 14 0 7 9 16 20 19 11 3 20 12 20 21
0 9 7 16 15 16 8 0 15 6 15 14 0 7 9 16 20 19 11 3 20 12 20 21 0 9 7 16 15
16 8 0 15 6 15 14 0 7 9 16 20 19 11 3 20 12 20 21 0 9 4 16 10 16 5 0 104 95
220 210 116 116 215 210 220 210 6 0 10 4 10 9 0 11 44 61 53 61 4 0 55 48
115 108 217 215 472 462 477 462 3 0 28 23 55 50 27 28 54 50 60 50 5 0 10 6
10 14 0 8 9 18 20 21 11 3 20 13 20 21 0 8 4 14 10 14 12 0 60 48 60 60 0 6 4
10 9 10 5 0 75 65 156 145 81 80 150 145 154 145 3 0 39 32 79 70 40 39 77 70
82 70 6 0 10 7 10 15 0 8 5 15 11 15 14 0 59 47 59 61 0 5 6 9 13 9 6 0 25 16
41 35 16 19 35 35 43 35 7 0 13 5 13 11 0 14 47 59 61 59 5 0 9 5 9 11 0 14
47 59 61 59 5 0 9 5 9 11 0 11 45 59 55 59 3 0 80 73 172 163 229 222 276 267
279 267 2 0 36 31 75 70 39 39 75 70 80 70 5 0 9 7 9 15 0 8 5 15 10 15 6 0
76 65 157 145 80 80 148 145 152 145 3 0 30 23 59 50 29 28 56 50 60 50 4 0
20 16 36 35 16 19 35 35 43 35 7 0 13 6 13 14 0 8 15 17 34 20 19 4 36 12 39
19 5 15 95 16 105 1 4 -6 22 -15 40 -19 18 -3 32 -13 32 -21 0 -8 9 -14 20
-14 11 0 20 -7 20 -15 0 -8 7 -15 15 -15 9 0 18 -7 21 -15 3 -8 14 -17 25 -20
10 -4 19 -13 19 -21 0 -8 6 -14 14 -14 8 0 63 -48 124 -107 60 -60 123 -119
141 -133 17 -14 31 -30 31 -37 0 -7 4 -13 10 -13 5 0 57 -47 115 -105 57 -58
109 -105 115 -105 5 0 10 -7 10 -15 0 -8 4 -15 10 -15 10 0 107 -90 311 -290
379 -372 429 -420 439 -420 5 0 10 -5 10 -11 0 -14 47 -59 61 -59 5 0 9 -7 9
-16 0 -9 9 -18 20 -21 11 -3 20 -12 20 -19 0 -8 7 -14 15 -14 8 0 15 -6 15
-14 0 -8 9 -18 20 -21 11 -3 20 -13 20 -21 0 -8 5 -14 11 -14 7 0 34 -22 60
-50 26 -27 50 -50 54 -50 3 0 87 -80 187 -177 100 -98 240 -234 310 -303 71
-69 178 -173 239 -232 60 -60 114 -108 119 -108 6 0 10 -7 10 -15 0 -8 4 -15
9 -15 5 0 35 -25 67 -56 106 -100 382 -367 493 -476 60 -60 114 -108 120 -108
6 0 11 -4 11 -10 0 -12 48 -60 60 -60 6 0 10 -6 10 -14 0 -8 9 -18 20 -21 11
-3 20 -13 20 -21 0 -8 5 -14 10 -14 6 0 42 -31 80 -70 38 -38 72 -70 75 -70 3
0 94 -87 201 -192 108 -106 202 -194 210 -196 8 -2 14 -10 14 -18 0 -8 8 -18
17 -21 21 -8 53 -40 53 -53 0 -6 8 -14 17 -17 9 -4 25 -15 35 -25 10 -10 18
-23 18 -28 0 -6 7 -13 16 -17 9 -3 70 -59 135 -124 66 -66 124 -119 129 -119
6 0 10 -7 10 -15 0 -8 5 -15 11 -15 6 0 35 -24 64 -52 30 -29 122 -118 205
-198 84 -80 201 -193 262 -252 60 -60 114 -108 119 -108 5 0 9 -7 9 -15 0 -8
6 -15 14 -15 8 0 18 -9 21 -20 3 -11 13 -20 21 -20 8 0 14 -7 14 -15 0 -8 6
-15 13 -15 6 0 25 -16 41 -35 16 -19 35 -35 43 -35 7 0 13 -4 13 -10 0 -17 73
-41 115 -38 34 3 42 8 57 38 23 45 24 178 2 304 -27 160 -55 309 -69 366 -7
30 -22 98 -34 150 -12 52 -28 118 -36 145 -7 28 -21 77 -30 110 -10 33 -19 74
-22 90 -3 17 -10 35 -14 41 -5 7 -16 38 -25 70 -8 33 -19 63 -25 69 -5 5 -9
20 -9 35 0 14 -7 34 -15 44 -8 11 -15 29 -15 41 0 11 -9 38 -20 60 -11 22 -20
49 -20 60 0 12 -4 25 -9 31 -5 5 -14 27 -21 49 -7 22 -19 49 -26 60 -8 11 -14
26 -14 35 0 20 -45 129 -59 143 -6 6 -11 20 -11 32 0 11 -9 38 -20 60 -11 22
-20 44 -20 51 0 6 -7 17 -15 24 -8 7 -15 23 -15 35 0 12 -7 28 -15 35 -8 7
-17 27 -21 46 -3 19 -10 34 -15 34 -4 0 -11 16 -15 35 -3 19 -10 35 -15 35 -5
0 -14 20 -20 45 -6 24 -17 50 -25 56 -8 6 -14 25 -14 41 0 16 -6 31 -14 34 -8
3 -17 25 -20 49 -4 24 -14 49 -21 55 -8 7 -15 25 -15 41 0 16 -9 46 -20 66
-11 21 -20 48 -20 61 0 12 -6 33 -14 45 -7 12 -16 44 -20 71 -3 27 -10 54 -15
60 -6 7 -14 40 -20 76 -6 35 -15 68 -21 74 -5 5 -10 25 -10 44 0 39 -19 123
-31 137 -5 5 -9 26 -9 47 0 21 -6 64 -14 96 -20 76 -46 213 -56 287 -4 33 -13
74 -18 90 -6 17 -13 60 -16 96 -4 37 -13 89 -21 115 -8 27 -15 70 -15 95 0 25
-6 68 -14 95 -8 27 -17 87 -20 134 -3 47 -13 110 -21 140 -8 30 -15 82 -15
115 -1 33 -5 80 -10 105 -5 25 -16 137 -25 250 -8 113 -18 214 -21 225 -3 11
-9 119 -14 240 -6 121 -14 274 -19 340 -13 156 -13 1045 0 1200 5 66 13 229
18 362 5 133 11 245 14 250 3 5 13 101 22 213 9 113 20 221 25 240 6 19 10 64
10 100 0 37 4 70 9 75 11 12 31 138 31 195 0 23 5 50 11 61 6 11 14 59 19 105
5 47 14 91 19 98 6 7 14 46 17 87 4 41 13 83 20 94 8 11 14 40 14 65 0 25 7
56 16 68 8 12 18 48 21 80 4 31 12 62 18 69 7 7 16 37 20 68 4 34 12 58 21 62
8 3 14 19 14 37 0 19 8 38 20 49 11 9 20 26 20 37 0 11 6 20 14 20 7 0 16 9
19 20 3 11 12 20 21 20 9 0 16 6 16 14 0 8 15 17 34 20 19 4 36 13 39 20 4 9
32 15 89 19 46 3 115 10 153 16 104 17 6539 10 6580 -6 24 -9 174 -20 318 -23
9 0 17 -7 17 -15 0 -8 9 -15 20 -15 16 0 20 -7 20 -35 0 -25 -4 -35 -16 -35
-9 0 -18 -9 -21 -20 -3 -11 -12 -20 -19 -20 -8 0 -14 -7 -14 -15 0 -8 -7 -15
-16 -15 -9 0 -18 -9 -21 -19 -3 -11 -17 -21 -34 -25 -17 -3 -29 -12 -29 -21 0
-8 -9 -15 -20 -15 -11 0 -20 -6 -20 -14 0 -8 -9 -18 -20 -21 -11 -3 -20 -13
-20 -21 0 -8 -6 -14 -13 -14 -7 0 -23 -9 -35 -20 -12 -11 -28 -20 -37 -20 -8
0 -15 -7 -15 -15 0 -8 -7 -15 -15 -15 -7 0 -18 -6 -22 -13 -4 -7 -19 -18 -33
-25 -34 -16 -60 -33 -82 -54 -10 -10 -25 -18 -33 -18 -9 0 -18 -7 -21 -15 -4
-8 -13 -15 -20 -15 -8 0 -17 -7 -20 -15 -4 -8 -12 -15 -19 -15 -7 0 -24 -9
-37 -20 -58 -50 -72 -60 -80 -60 -8 0 -47 -29 -133 -99 -26 -20 -115 -81 -120
-81 -3 0 -26 -15 -52 -32 -63 -43 -82 -55 -120 -75 -18 -9 -33 -20 -33 -25 0
-4 -7 -8 -15 -8 -7 0 -18 -6 -22 -13 -4 -7 -21 -19 -37 -27 -56 -29 -66 -35
-66 -42 0 -4 -15 -14 -32 -22 -18 -7 -45 -24 -59 -37 -31 -28 -55 -45 -89 -61
-14 -7 -29 -18 -33 -25 -4 -7 -15 -13 -23 -13 -8 0 -17 -6 -20 -14 -3 -8 -19
-19 -35 -25 -16 -5 -29 -15 -29 -20 0 -6 -7 -11 -15 -11 -7 0 -18 -6 -22 -14
-5 -8 -18 -18 -30 -23 -11 -4 -38 -23 -60 -41 -322 -273 -362 -302 -918 -674
-275 -183 -574 -386 -665 -449 -176 -124 -593 -402 -725 -484 -136 -85 -335
-220 -463 -315 -68 -50 -268 -187 -445 -305 -336 -223 -502 -337 -749 -509
-80 -57 -253 -167 -385 -246 -425 -256 -491 -303 -540 -388 -30 -51 -53 -137
-53 -202 0 -66 28 -352 45 -451 8 -47 15 -106 15 -130 0 -24 7 -73 16 -109 8
-36 19 -83 24 -105 5 -22 18 -76 30 -120 11 -44 39 -170 61 -280 57 -280 90
-410 110 -429 5 -6 9 -19 9 -31 0 -12 7 -30 15 -41 8 -10 15 -28 15 -39 0 -11
9 -37 20 -58 11 -20 20 -45 20 -56 0 -10 6 -24 14 -30 7 -6 16 -29 20 -50 3
-21 13 -44 21 -51 8 -7 15 -19 15 -27 0 -8 7 -27 15 -41 85 -157 180 -371 220
-498 25 -82 55 -172 66 -199 10 -28 19 -60 19 -71 0 -11 7 -29 15 -40 8 -10
15 -30 15 -44 0 -14 9 -42 20 -63 11 -20 20 -47 20 -60 0 -12 6 -31 14 -42 7
-11 16 -40 19 -64 3 -24 10 -47 15 -50 9 -5 30 -85 34 -128 1 -7 4 -13 8 -13
4 0 10 -21 14 -46 3 -26 11 -53 16 -59 6 -7 13 -37 17 -66 3 -30 11 -65 18
-79 7 -14 15 -53 18 -88 4 -35 12 -73 18 -84 6 -12 15 -55 20 -96 5 -42 13
-80 19 -86 5 -5 10 -28 10 -50 0 -23 7 -72 16 -111 8 -38 19 -95 24 -125 4
-30 19 -102 33 -160 61 -259 62 -267 62 -770 0 -473 -3 -531 -46 -870 -89
-714 -338 -1456 -697 -2080 -303 -528 -604 -913 -1101 -1411 -442 -441 -1015
-899 -1436 -1144 -55 -32 -226 -132 -379 -223 -479 -282 -868 -477 -1406 -707
-517 -221 -635 -264 -850 -309 -69 -15 -147 -33 -175 -40 -27 -8 -71 -17 -97
-21 -27 -3 -48 -10 -48 -15 0 -4 -39 -11 -87 -15 -49 -4 -91 -13 -95 -19 -10
-15 -386 -15 -396 0 -4 6 -43 14 -87 18 -44 4 -82 12 -86 17 -3 6 -26 13 -50
16 -24 3 -51 11 -59 18 -8 8 -33 17 -55 21 -22 4 -49 13 -60 19 -11 7 -37 16
-57 19 -21 4 -38 11 -38 16 0 6 -8 10 -17 10 -10 1 -36 9 -58 20 -22 11 -48
19 -58 20 -11 0 -31 7 -45 14 -43 23 -117 53 -151 61 -17 4 -31 10 -31 15 0 4
-20 13 -44 19 -25 6 -48 15 -51 21 -3 5 -13 10 -22 10 -15 0 -73 24 -135 56
-14 8 -32 14 -38 14 -12 0 -74 26 -124 52 -10 6 -124 45 -254 88 -271 91 -386
145 -567 266 -71 47 -140 90 -152 95 -13 5 -23 13 -23 18 0 5 -13 12 -30 16
-16 4 -30 11 -30 16 0 5 -10 14 -22 19 -23 10 -34 16 -73 38 -20 12 -47 25
-75 36 -8 4 -46 24 -85 46 -38 22 -78 43 -87 46 -10 4 -18 10 -18 14 0 4 -15
13 -32 21 -18 7 -37 19 -41 26 -4 7 -14 13 -21 13 -7 0 -33 15 -57 33 -24 18
-56 38 -71 45 -16 6 -28 16 -28 21 0 5 -13 12 -29 16 -16 3 -32 13 -35 21 -3
8 -12 14 -21 14 -8 0 -15 4 -15 10 0 5 -15 16 -32 25 -40 18 -65 34 -90 57
-10 10 -24 18 -32 18 -8 0 -16 7 -20 15 -3 8 -12 15 -21 15 -8 0 -15 4 -15 10
0 5 -15 16 -32 25 -40 18 -65 34 -90 57 -10 10 -24 18 -32 18 -8 0 -16 7 -20
15 -3 8 -10 15 -15 15 -5 0 -27 16 -48 35 -21 19 -42 35 -46 35 -11 0 -66 40
-92 66 -11 12 -35 29 -52 38 -18 9 -33 21 -33 26 0 6 -6 10 -12 10 -7 0 -24
12 -37 26 -13 14 -48 41 -77 60 -30 20 -54 40 -54 45 0 5 -7 9 -15 9 -8 0 -15
7 -15 15 0 8 -4 15 -8 15 -5 0 -28 18 -53 40 -24 22 -49 40 -54 40 -6 0 -23
16 -39 35 -16 19 -33 35 -38 35 -5 0 -24 16 -42 35 -19 19 -36 35 -39 35 -3 0
-60 53 -127 118 -67 64 -130 121 -140 126 -10 4 -20 17 -23 27 -3 11 -12 19
-20 19 -9 0 -17 6 -19 14 -3 12 -92 111 -265 293 -29 30 -53 59 -53 64 0 5 -4
9 -8 9 -5 0 -23 22 -40 49 -18 27 -39 51 -47 55 -8 3 -15 12 -15 21 0 8 -7 15
-15 15 -8 0 -15 4 -15 9 0 6 -12 23 -26 38 -14 15 -33 41 -41 57 -8 15 -28 41
-44 57 -16 16 -29 33 -29 39 0 6 -6 13 -14 16 -8 3 -19 19 -25 35 -5 16 -15
29 -20 29 -6 0 -11 6 -11 13 0 7 -9 20 -20 30 -11 9 -20 22 -20 29 0 7 -15 29
-33 48 -32 34 -45 53 -69 100 -7 14 -18 29 -25 33 -7 4 -13 14 -13 21 0 7 -16
34 -35 59 -19 25 -35 52 -35 59 0 8 -9 21 -20 31 -11 9 -20 24 -20 32 0 8 -4
15 -10 15 -5 0 -13 12 -16 26 -4 15 -15 35 -25 45 -11 11 -19 28 -19 38 0 10
-7 21 -15 25 -8 3 -15 17 -15 30 0 15 -8 30 -20 36 -12 6 -20 21 -20 36 0 13
-7 27 -15 30 -8 4 -15 17 -15 30 0 13 -9 32 -20 41 -11 10 -20 28 -20 41 0 12
-6 25 -14 28 -8 3 -17 20 -20 39 -4 18 -13 36 -21 39 -8 3 -15 16 -15 29 0 14
-6 30 -14 36 -8 7 -18 25 -21 41 -3 16 -13 34 -21 41 -8 6 -14 21 -14 32 0 11
-6 28 -13 36 -8 9 -19 35 -26 59 -6 23 -16 42 -21 42 -6 0 -10 13 -10 29 0 16
-6 34 -14 40 -8 7 -17 28 -21 49 -4 20 -13 48 -20 62 -8 14 -17 42 -20 63 -3
20 -10 37 -15 37 -5 0 -12 17 -16 38 -3 20 -12 46 -19 57 -6 11 -15 40 -19 65
-4 24 -11 47 -16 50 -6 3 -13 28 -16 56 -4 27 -11 52 -16 55 -5 3 -13 34 -19
70 -6 35 -14 66 -20 69 -5 3 -12 28 -15 56 -3 27 -12 67 -19 89 -8 22 -17 67
-20 100 -4 33 -11 65 -17 72 -5 6 -13 47 -17 90 -5 43 -14 91 -20 106 -6 16
-11 49 -11 75 0 26 -9 101 -20 167 -11 66 -20 158 -20 205 0 47 -7 135 -15
195 -18 132 -20 577 -4 765 6 69 14 170 19 225 4 55 15 143 24 195 9 52 16
111 16 131 0 20 7 56 15 79 8 23 15 64 15 90 0 26 7 67 15 91 9 24 18 71 22
104 3 33 10 66 15 72 6 7 14 47 19 90 5 42 13 79 19 83 6 4 13 31 16 61 4 30
12 63 19 74 6 11 15 44 18 73 3 29 13 62 22 74 8 13 15 38 15 58 0 19 7 44 15
54 8 11 15 31 15 45 0 14 9 46 20 70 11 24 20 53 20 65 0 11 7 34 15 50 8 16
18 46 21 67 4 21 13 44 20 50 8 6 14 21 14 33 0 12 9 39 20 61 11 22 20 50 20
62 0 13 4 23 10 23 5 0 12 17 16 38 4 20 15 53 25 72 11 19 19 43 19 52 0 10
4 18 10 18 5 0 13 18 16 41 4 22 13 46 20 53 7 8 16 27 20 42 4 16 13 38 20
49 6 11 15 34 19 52 3 17 13 37 21 44 8 6 14 22 14 34 0 12 7 28 15 35 8 7 15
23 15 35 0 12 7 28 15 35 8 7 18 30 21 51 4 21 13 44 20 50 8 6 14 22 14 35 0
12 6 29 14 36 7 8 17 30 21 49 4 19 13 45 20 59 14 28 43 110 55 155 5 17 13
44 18 60 6 17 20 64 32 105 12 41 27 91 33 110 6 19 14 53 18 75 3 22 14 72
24 110 49 198 74 313 86 395 4 30 12 70 18 88 5 17 13 69 17 115 4 45 11 93
16 107 14 35 32 319 32 480 0 125 -2 139 -27 193 -27 59 -135 177 -162 177 -8
0 -20 6 -27 13 -28 25 -78 57 -90 57 -8 0 -21 9 -31 20 -9 11 -26 20 -36 20
-11 0 -24 6 -28 13 -4 7 -19 18 -33 25 -39 19 -64 36 -73 49 -4 6 -20 14 -36
18 -16 3 -32 13 -35 21 -3 8 -12 14 -21 14 -8 0 -15 4 -15 9 0 5 -16 15 -35
21 -19 6 -35 16 -35 21 0 6 -13 15 -30 20 -16 6 -30 15 -30 20 0 5 -6 9 -13 9
-8 0 -22 9 -32 20 -10 11 -23 20 -30 20 -10 0 -29 13 -77 53 -12 9 -28 17 -37
17 -9 0 -24 8 -33 18 -22 23 -60 52 -71 52 -4 0 -29 16 -54 35 -25 19 -52 35
-59 35 -7 0 -17 6 -21 13 -9 13 -68 57 -78 57 -3 0 -28 18 -56 40 -28 22 -57
40 -64 40 -7 0 -15 7 -19 15 -3 8 -12 15 -21 15 -8 0 -15 5 -15 11 0 5 -13 15
-30 20 -16 6 -30 15 -30 20 0 5 -11 14 -25 19 -14 5 -25 14 -25 20 0 5 -7 10
-15 10 -8 0 -24 9 -35 20 -11 11 -24 20 -29 20 -6 0 -23 12 -38 26 -15 15 -43
33 -60 40 -18 8 -33 19 -33 24 0 6 -6 10 -13 10 -8 0 -22 9 -32 20 -10 11 -22
20 -28 20 -5 0 -26 13 -47 30 -20 16 -49 34 -64 39 -14 6 -26 15 -26 21 0 5
-6 10 -13 10 -8 0 -22 9 -32 20 -10 11 -22 20 -26 20 -8 0 -133 91 -170 123
-9 8 -20 16 -25 18 -29 13 -84 52 -84 60 0 5 -5 9 -10 9 -11 0 -101 60 -135
90 -11 10 -30 21 -42 25 -13 3 -23 11 -23 16 0 5 -7 9 -15 9 -8 0 -19 8 -24
19 -6 10 -22 22 -36 25 -14 4 -25 11 -25 16 0 6 -7 10 -15 10 -9 0 -18 6 -21
14 -3 8 -20 20 -37 27 -33 14 -45 22 -75 50 -9 9 -27 20 -39 23 -13 4 -23 12
-23 17 0 5 -6 9 -13 9 -8 0 -22 9 -32 20 -10 11 -27 22 -38 26 -22 7 -39 19
-65 47 -9 9 -22 17 -28 17 -6 0 -21 9 -34 20 -13 11 -29 20 -37 20 -7 0 -13 5
-13 10 0 6 -12 16 -27 23 -16 6 -32 17 -36 24 -4 7 -15 13 -22 13 -8 0 -15 4
-15 10 0 5 -16 16 -35 24 -19 8 -35 20 -35 25 0 6 -9 11 -20 11 -11 0 -20 5
-20 10 0 6 -12 16 -27 23 -16 6 -32 17 -36 24 -4 7 -14 13 -22 13 -8 0 -18 6
-22 13 -4 7 -19 18 -33 25 -34 16 -60 33 -82 55 -10 9 -24 17 -32 17 -8 0 -16
7 -20 15 -3 8 -12 15 -20 15 -8 0 -19 6 -23 13 -4 7 -19 18 -33 25 -34 16 -58
33 -89 61 -14 13 -41 30 -58 37 -18 8 -33 19 -33 24 0 6 -6 10 -13 10 -8 0
-22 9 -32 20 -10 11 -26 20 -37 20 -10 0 -18 4 -18 9 0 5 -17 19 -37 32 -38
22 -85 52 -198 125 -33 22 -65 41 -71 44 -6 3 -24 15 -40 27 -16 13 -45 34
-64 47 -19 14 -57 40 -85 59 -27 19 -61 44 -74 56 -13 11 -32 23 -42 26 -11 4
-19 11 -19 16 0 5 -11 14 -25 19 -14 5 -25 14 -25 20 0 5 -7 10 -15 10 -8 0
-23 8 -33 18 -10 10 -26 21 -35 25 -9 3 -17 11 -17 16 0 5 -14 12 -30 16 -17
4 -30 11 -30 16 0 5 -11 14 -25 19 -14 5 -25 14 -25 20 0 5 -7 10 -15 10 -8 0
-23 8 -33 18 -10 10 -26 21 -35 25 -9 3 -17 11 -17 17 0 5 -6 10 -13 10 -8 0
-22 9 -32 20 -10 11 -25 20 -34 20 -9 0 -26 10 -37 23 -12 12 -35 29 -50 37
-16 8 -48 29 -71 47 -23 18 -47 33 -55 33 -7 0 -21 8 -30 18 -25 27 -61 52
-75 52 -6 0 -16 6 -20 13 -11 17 -64 53 -90 61 -12 4 -24 13 -27 21 -3 8 -12
15 -21 15 -8 0 -15 5 -15 11 0 5 -13 15 -29 20 -16 6 -32 17 -35 25 -3 8 -12
14 -21 14 -8 0 -15 4 -15 10 0 5 -16 16 -35 24 -19 8 -35 20 -35 25 0 6 -7 11
-15 11 -7 0 -18 6 -22 13 -4 7 -19 18 -33 25 -34 16 -60 33 -82 55 -10 9 -25
17 -33 17 -9 0 -18 7 -21 15 -4 8 -12 15 -20 15 -7 0 -17 6 -21 13 -4 7 -19
18 -33 25 -33 16 -58 33 -87 59 -13 11 -39 29 -58 38 -19 9 -35 20 -35 24 0 5
-8 12 -17 15 -27 10 -85 44 -92 53 -8 11 -69 53 -76 53 -6 0 -101 72 -126 95
-9 8 -21 15 -27 15 -7 0 -12 6 -12 14 0 7 -9 16 -20 19 -11 3 -20 12 -20 20 0
9 -13 18 -30 22 -17 4 -30 13 -30 21 0 8 -9 14 -20 14 -11 0 -20 6 -20 14 0 7
-9 16 -20 19 -11 3 -20 12 -20 21 0 11 -9 16 -30 16 -21 0 -30 5 -30 16 0 9
-9 18 -20 21 -11 3 -20 12 -20 19 0 8 -7 14 -15 14 -8 0 -15 9 -15 20 0 13 7
20 20 20 11 0 20 6 20 14 0 15 86 26 225 26 50 0 108 6 130 12 31 10 784 14
3205 18 3393 6 3580 5 3593 -16z"/>
<path d="M343 20772 c-25 -4 -32 -32 -9 -32 8 0 16 -7 20 -15 3 -9 18 -15 36
-15 20 0 30 -5 30 -15 0 -10 10 -15 29 -15 23 0 30 5 36 28 3 15 13 35 22 44
14 15 9 17 -64 20 -43 2 -88 2 -100 0z"/>
<path d="M24326 20755 c-3 -8 -17 -15 -32 -15 -22 0 -25 -3 -20 -22 3 -13 6
-35 6 -50 0 -16 5 -28 10 -28 6 0 10 6 10 14 0 8 15 17 35 20 21 4 35 13 35
21 0 9 9 15 21 15 24 0 23 35 -1 35 -8 1 -14 6 -12 13 3 18 -45 15 -52 -3z"/>
<path d="M12309 13383 c-29 -15 -58 -33 -62 -40 -4 -7 -15 -13 -22 -13 -8 0
-15 -7 -15 -15 0 -8 -4 -15 -10 -15 -5 0 -91 -80 -190 -177 -100 -98 -219
-214 -265 -258 -47 -44 -114 -108 -150 -142 -36 -35 -70 -63 -75 -63 -6 0 -10
-7 -10 -15 0 -8 -4 -15 -10 -15 -5 0 -34 -25 -65 -55 -30 -30 -59 -55 -65 -55
-5 0 -10 -7 -10 -15 0 -8 -6 -15 -14 -15 -7 0 -16 -9 -19 -20 -3 -11 -12 -20
-21 -20 -9 0 -16 -7 -16 -15 0 -8 -4 -15 -9 -15 -5 0 -52 -42 -103 -92 -87
-86 -411 -399 -520 -503 -26 -25 -51 -45 -56 -45 -5 0 -12 -9 -15 -20 -3 -11
-12 -20 -21 -20 -9 0 -16 -7 -16 -15 0 -8 -4 -15 -9 -15 -5 0 -128 -116 -273
-259 -268 -263 -598 -585 -677 -660 -24 -22 -47 -41 -52 -41 -5 0 -9 -7 -9
-15 0 -8 -5 -15 -11 -15 -6 0 -25 -16 -43 -35 -19 -19 -38 -35 -45 -35 -6 0
-11 -7 -11 -15 0 -8 -6 -15 -14 -15 -7 0 -16 -9 -19 -20 -3 -11 -12 -20 -21
-20 -9 0 -16 -7 -16 -15 0 -8 -6 -15 -14 -15 -8 0 -18 -9 -21 -20 -3 -11 -13
-20 -21 -20 -8 0 -14 -7 -14 -15 0 -8 -6 -15 -14 -15 -8 0 -18 -9 -21 -20 -3
-11 -10 -20 -15 -20 -5 0 -59 -48 -119 -107 -60 -60 -166 -162 -236 -228 -71
-66 -145 -137 -165 -157 -20 -21 -42 -38 -48 -38 -7 0 -12 -7 -12 -15 0 -8 -4
-15 -9 -15 -5 0 -57 -47 -117 -105 -59 -58 -109 -105 -110 -105 -1 0 -22 -19
-46 -42 -24 -24 -86 -81 -137 -128 -52 -47 -118 -109 -147 -137 -30 -29 -58
-53 -64 -53 -5 0 -10 -7 -10 -15 0 -8 -4 -15 -9 -15 -5 0 -44 -33 -86 -72 -42
-40 -97 -91 -122 -113 -24 -22 -67 -61 -94 -87 -27 -27 -51 -48 -54 -48 -2 0
-60 -56 -129 -124 -103 -101 -132 -136 -157 -191 -29 -61 -31 -73 -27 -149 4
-76 18 -123 60 -200 71 -132 103 -178 223 -321 50 -60 138 -171 194 -245 57
-74 136 -173 175 -220 119 -143 681 -703 861 -858 94 -81 206 -181 250 -223
44 -42 93 -87 109 -100 16 -13 39 -34 52 -46 13 -13 26 -23 30 -23 4 0 17 -8
28 -19 33 -29 125 -91 136 -91 5 0 10 -4 10 -10 0 -5 16 -16 35 -24 19 -8 35
-20 35 -25 0 -6 7 -11 15 -11 9 0 18 -6 21 -14 3 -8 18 -18 34 -21 16 -3 31
-13 34 -21 3 -8 12 -14 21 -14 8 0 15 -4 15 -9 0 -5 15 -14 33 -22 17 -7 36
-19 40 -26 4 -7 15 -13 22 -13 8 0 15 -4 15 -9 0 -5 16 -15 35 -21 19 -6 35
-15 35 -20 0 -5 16 -14 35 -20 19 -6 35 -15 35 -18 0 -4 10 -13 23 -19 51 -27
84 -46 122 -69 22 -13 52 -29 68 -35 15 -6 27 -15 27 -19 0 -5 14 -11 31 -15
17 -4 33 -13 36 -21 3 -8 14 -14 24 -14 10 0 19 -4 19 -9 0 -5 15 -15 33 -22
17 -7 38 -19 45 -26 7 -7 20 -13 29 -13 8 0 26 -9 40 -20 14 -11 34 -20 44
-20 11 0 19 -4 19 -10 0 -5 12 -13 28 -16 15 -4 38 -15 51 -26 13 -10 32 -18
41 -18 10 0 23 -7 30 -15 7 -8 20 -15 30 -15 10 0 23 -7 30 -15 7 -8 17 -15
23 -15 9 0 64 -24 137 -60 19 -10 47 -20 63 -24 15 -3 27 -11 27 -16 0 -6 7
-10 16 -10 9 0 35 -9 58 -19 80 -37 113 -50 296 -111 127 -42 249 -92 391
-161 113 -54 209 -99 213 -99 4 0 26 -9 49 -19 24 -11 55 -23 70 -26 15 -4 30
-11 33 -16 3 -5 18 -9 33 -9 16 0 34 -6 40 -14 7 -8 31 -18 54 -21 23 -4 47
-11 52 -15 40 -32 311 -38 371 -7 16 8 47 17 68 20 22 4 42 11 46 17 4 6 24
13 46 17 21 3 46 11 54 18 8 7 32 15 52 19 21 4 44 13 52 21 8 8 26 15 39 15
14 0 30 6 36 14 6 7 29 16 50 20 21 3 44 13 51 21 7 8 25 15 40 15 15 0 33 6
39 14 7 8 30 17 51 21 21 4 44 13 51 21 6 8 22 14 34 14 12 0 28 6 34 14 7 8
30 17 51 21 21 4 44 13 51 21 6 8 22 14 35 14 12 0 29 7 38 15 8 8 21 15 28
15 8 0 31 9 53 20 22 11 47 20 56 20 9 0 26 9 39 20 13 11 32 20 42 20 11 0
26 7 34 15 9 8 26 15 38 15 13 0 29 6 35 14 6 8 32 19 56 25 25 6 45 15 45 20
0 5 15 12 34 15 19 4 37 13 40 21 3 8 16 15 29 15 14 0 30 7 37 15 7 8 20 15
30 15 9 0 27 9 40 20 13 11 31 20 40 20 10 0 23 7 30 15 7 8 20 15 30 15 9 0
27 9 40 20 13 11 31 20 40 20 10 0 23 6 29 14 7 8 25 18 41 21 16 3 31 13 34
21 3 8 16 14 30 14 14 0 28 5 31 10 4 6 21 17 38 25 36 17 65 34 85 52 7 7 19
13 26 13 7 0 23 9 36 20 13 11 29 20 36 20 7 0 19 6 26 13 7 7 24 18 38 25 45
23 73 40 79 49 3 5 17 14 31 21 29 14 47 25 110 67 25 17 56 36 70 43 43 21
117 66 137 82 10 9 35 25 56 35 21 11 45 28 54 38 9 9 20 17 25 17 12 0 71 42
81 58 4 6 12 12 18 12 5 0 15 5 22 10 7 6 32 24 57 41 126 84 150 102 150 110
0 5 6 9 13 9 7 0 20 9 30 20 9 11 23 20 30 20 7 0 20 8 29 18 31 31 53 49 88
73 40 27 54 39 105 87 20 17 37 32 40 32 3 0 20 15 39 33 19 17 53 45 75 61
23 17 41 33 41 38 0 4 4 8 9 8 5 0 41 31 80 70 39 39 73 70 76 70 10 0 335
329 335 339 0 6 6 11 14 11 8 0 18 9 21 20 3 11 13 20 21 20 8 0 14 5 14 11 0
6 16 25 35 43 19 19 35 38 35 45 0 6 4 11 8 11 5 0 23 23 41 50 18 28 37 50
42 50 5 0 9 7 9 15 0 9 6 18 14 21 8 3 36 37 62 75 25 38 50 69 55 69 5 0 9 7
9 15 0 9 7 18 15 21 8 3 17 16 21 27 6 21 20 40 57 75 9 9 17 22 17 29 0 7 5
13 11 13 5 0 15 13 20 29 6 16 17 32 25 35 8 3 14 12 14 21 0 8 4 15 9 15 5 0
15 16 22 35 7 19 17 35 21 35 4 0 14 15 23 32 17 37 34 66 53 86 6 7 12 20 12
27 0 7 6 20 13 27 27 27 99 176 117 241 7 28 11 74 7 112 -8 103 -61 178 -212
300 -21 17 -57 49 -81 73 -24 23 -47 42 -52 42 -4 0 -33 25 -64 55 -31 30 -61
55 -67 55 -6 0 -11 7 -11 15 0 8 -6 15 -14 15 -7 0 -16 9 -19 20 -3 11 -12 20
-21 20 -9 0 -16 7 -16 15 0 8 -4 15 -9 15 -5 0 -41 32 -81 70 -40 39 -74 70
-76 70 -2 0 -77 71 -166 158 -89 86 -204 198 -256 247 -52 50 -143 138 -203
198 -60 59 -114 107 -119 107 -6 0 -10 7 -10 15 0 8 -4 15 -9 15 -5 0 -35 25
-67 56 -140 132 -364 348 -478 462 -69 67 -129 122 -135 122 -6 0 -11 4 -11
10 0 5 -11 21 -25 35 -14 14 -30 25 -35 25 -6 0 -10 6 -10 14 0 8 -9 18 -20
21 -11 3 -20 13 -20 21 0 8 -5 14 -10 14 -6 0 -42 32 -80 70 -38 39 -72 70
-75 70 -3 0 -94 87 -201 193 -108 105 -201 193 -209 195 -7 2 -15 12 -18 23
-3 10 -12 19 -21 19 -9 0 -16 7 -16 15 0 8 -6 15 -14 15 -7 0 -16 9 -19 20 -3
11 -11 20 -19 20 -7 0 -24 16 -37 35 -13 19 -27 35 -32 35 -4 0 -63 54 -129
120 -66 66 -125 120 -130 120 -6 0 -10 7 -10 15 0 8 -5 15 -11 15 -6 0 -35 24
-65 53 -29 28 -128 124 -220 212 -91 88 -224 217 -295 288 -71 70 -134 127
-139 127 -6 0 -10 7 -10 15 0 8 -6 15 -14 15 -8 0 -18 9 -21 20 -3 11 -13 20
-21 20 -8 0 -14 7 -14 15 0 8 -7 15 -16 15 -9 0 -18 9 -21 20 -3 11 -12 20
-19 20 -8 0 -14 7 -14 15 0 8 -5 15 -10 15 -6 0 -42 32 -80 70 -38 39 -71 70
-74 70 -5 0 -64 56 -297 286 -98 96 -180 174 -183 174 -4 0 -30 23 -58 50
-103 100 -212 126 -319 73z"/>
</g>
</svg>
